<svg width="602" height="96" viewBox="0 0 602 96" fill="none" xmlns="http://www.w3.org/2000/svg">
<path d="M602 0L598.529 16.8612C598.409 15.1775 597.913 13.5113 597.041 11.8561C595.329 8.4909 592.608 6.80719 588.881 6.80719H164.591V7.8902C164.561 25.3521 164.53 32.5123 164.501 46.9093V75.0413C164.681 77.5362 166.049 79.7 168.603 81.5328C169.866 82.4645 171.111 83.142 172.345 83.5607H145.883C147.115 83.1398 148.377 82.4645 149.669 81.5328C152.194 79.7 153.56 77.5362 153.77 75.0413V40.3323C153.74 25.9353 153.709 25.3543 153.681 7.8902L153.634 6.80719H136.232C132.506 6.80719 129.77 8.4909 128.027 11.8561C127.185 13.5091 126.705 15.1775 126.584 16.8612L123.116 0L126.587 1.62233H598.527L601.997 0H602Z" fill="white"/>
<path d="M50.2507 55.9132C50.402 55.4156 50.2398 54.8412 49.764 54.1923C48.8126 52.8725 46.7344 51.8114 43.5315 51.0112H64.7941C61.5912 51.8114 59.513 52.8725 58.5615 54.1923C58.0639 54.8412 57.9017 55.4156 58.0749 55.9132V78.8648C57.1234 79.6233 55.5647 80.3906 53.401 81.1689C49.0516 82.7057 43.8472 83.473 37.7878 83.473C26.8594 83.473 18.1496 80.8444 11.6562 75.585C4.25298 69.5912 0.55247 60.6969 0.55247 48.9022C0.293785 43.5792 1.55871 38.265 4.34944 32.9639C9.95502 22.3158 20.3967 16.9928 35.6745 16.9928C47.9883 17.9245 55.6919 18.8541 58.7873 19.7836L56.5469 34.4898C56.0931 32.0673 54.9136 29.6425 53.0086 27.2178C49.2204 22.3487 43.6806 19.913 36.3891 19.913C27.5807 19.913 20.6335 22.478 15.5496 27.6059C10.3979 32.7995 7.82416 39.9421 7.82416 49.0315C7.82416 58.1209 11.3515 65.1123 18.4061 71.1719C24.9193 76.7557 32.1252 79.5466 40.0261 79.5466C44.3974 79.7417 47.8064 78.7135 50.2507 76.462V55.9132Z" fill="white"/>
<path d="M103.779 17.0235C111.441 17.0235 118.548 20.1519 125.105 26.4044C132.311 33.3081 135.915 41.6938 135.915 51.5636C135.915 61.4335 132.203 69.1593 124.78 75.3921C118.353 80.7808 111.353 83.4752 103.779 83.4752C95.5555 83.4752 88.1961 81.1272 81.7049 76.4313C73.5454 70.5229 69.4678 62.1592 69.4678 51.3378C69.4678 36.2107 75.1917 25.9528 86.6396 20.5641C92.3526 17.8587 98.0656 16.6793 103.779 17.0257V17.0235ZM77.7764 50.2329C77.7764 59.171 79.984 66.2369 84.3992 71.4306C87.5363 75.1093 91.5941 77.6743 96.5727 79.1234V21.5046C91.5941 22.934 87.5385 25.4639 84.3992 29.101C79.984 34.2508 77.7764 41.297 77.7764 50.2351V50.2329ZM100.727 20.6605C99.9904 20.7482 99.267 20.8666 98.5523 21.0179V79.6452C99.3086 79.7965 100.034 79.9258 100.727 80.0355V20.6605ZM104.007 80.1955C104.829 80.1736 105.706 80.11 106.635 80.0004V21.0815C105.747 20.8863 104.87 20.7351 104.007 20.6276V80.1955ZM108.615 79.6452C113.613 78.5841 117.704 76.3019 120.885 72.7964C125.385 67.8417 127.637 60.7649 127.637 51.5658C127.637 42.3668 125.385 35.0422 120.885 29.6535C117.704 25.8454 113.613 23.1729 108.615 21.6361V79.6474V79.6452Z" fill="white"/>
<path d="M222.138 18.1877L224.637 17.0192L222.138 29.1603C222.05 27.9479 221.695 26.7465 221.066 25.5561C219.832 23.1336 217.874 21.9212 215.191 21.9212H202.563V46.7866H216.458C219.141 46.7209 221.349 45.9864 223.081 44.579L221.458 57.597C221.415 56.4066 221.037 55.2271 220.323 54.0586C218.893 51.7216 216.513 50.5531 213.18 50.5531H202.566V75.2256C203.28 76.1573 204.297 77.0869 205.617 78.0164C208.279 79.8777 211.146 80.8072 214.22 80.8072C217.293 80.8072 220.202 79.3472 222.888 76.4248C224.229 74.9537 225.258 73.4914 225.972 72.0423L224.642 83.5016H189.193C190.122 83.1772 191.065 82.6685 192.017 81.9758C193.922 80.5464 194.873 78.8714 194.873 76.9444C194.873 73.8707 194.84 55.7906 194.777 22.6995C193.803 20.7089 191.552 19.2049 188.024 18.1877H222.14H222.138Z" fill="white"/>
<path d="M278.652 77.7248C278.998 79.7155 279.961 81.2742 281.541 82.3989C282.32 82.9623 283.078 83.3306 283.815 83.5016H266.123C268.677 82.2893 270.063 80.235 270.278 77.3346L261.026 63.4396L256.741 56.0383L252.455 63.4396L243.236 77.3346C243.366 79.152 244.361 80.7217 246.222 82.0415C247.132 82.7124 248.04 83.1991 248.949 83.5016H229.699C230.414 83.3284 231.17 82.9601 231.973 82.3989C233.551 81.2742 234.516 79.7155 234.862 77.7248L252.683 48.9965L238.725 22.7982C238.378 20.8075 237.416 19.2488 235.835 18.1241C235.035 17.5607 234.277 17.1946 233.564 17.0214H252.814C251.904 17.3239 250.997 17.8106 250.087 18.4815C248.226 19.8012 247.231 21.36 247.101 23.1555L257.1 41.205L257.133 41.2707L257.166 41.205L266.417 23.1555C266.288 21.36 265.293 19.8012 263.431 18.4815C262.522 17.8106 261.614 17.3239 260.704 17.0214H279.954C279.218 17.1946 278.461 17.5629 277.681 18.1241C276.1 19.2488 275.138 20.8075 274.792 22.7982L261.158 48.444L278.654 77.7248H278.652Z" fill="white"/>
<path d="M319.943 52.6949C319.641 53.1071 318.665 53.5171 317.021 53.9292C313.73 54.7294 308.754 55.1306 302.089 55.1306V77.4003C302.219 79.1958 303.192 80.7546 305.012 82.0744C305.921 82.7233 306.818 83.199 307.706 83.5038H288.78C289.668 83.2012 290.565 82.7255 291.475 82.0744C293.292 80.7546 294.265 79.1958 294.397 77.4003V23.5435C294.267 21.7699 293.294 20.2221 291.475 18.9023C290.565 18.2315 289.668 17.7448 288.78 17.4422H302.089C306.741 16.6859 311.396 16.7824 316.047 17.7338C325.375 19.639 330.038 24.8764 330.038 33.4463C330.19 35.005 329.876 36.9847 329.098 39.3875C327.583 44.1711 324.531 48.6062 319.943 52.6971V52.6949ZM313.191 50.4873C314.706 50.4215 316.221 49.8383 317.735 48.7334C320.743 46.5257 322.247 42.7922 322.247 37.5328C322.247 31.7976 320.699 27.2968 317.606 24.028C315.074 21.3665 312.24 20.0358 309.1 20.0358C305.961 20.0358 304.198 20.1235 303.808 20.2945C302.835 20.7066 302.348 22.0922 302.348 24.4489C302.348 27.8909 302.26 36.5681 302.089 50.4829H313.191V50.4873Z" fill="white"/>
<path d="M355.098 80.7437C358.235 80.7437 361.168 79.2616 363.895 76.2954C365.259 74.8024 366.309 73.3204 367.043 71.8472L365.68 83.5016H329.582C330.556 83.1771 331.518 82.6576 332.472 81.9429C334.399 80.4937 335.361 78.7947 335.361 76.8457C335.361 73.7085 335.328 55.3017 335.265 21.6274C334.291 19.593 332.007 18.0561 328.416 17.017H349.97C346.702 17.9684 344.452 19.4417 343.218 21.4323V75.0611C343.933 76.0148 344.972 76.9663 346.333 77.9177C349.017 79.801 351.939 80.7415 355.098 80.7415V80.7437ZM343.089 21.6296C343.023 55.3038 342.992 73.7107 342.992 76.8479L343.22 21.4345C343.176 21.5222 343.133 21.5858 343.091 21.6296H343.089Z" fill="white"/>
<path d="M399.311 17.052C406.973 17.052 414.08 20.1805 420.637 26.433C427.843 33.3367 431.447 41.7223 431.447 51.5922C431.447 61.4621 427.736 69.1879 420.313 75.4207C413.885 80.8094 406.885 83.5038 399.311 83.5038C391.088 83.5038 383.728 81.1558 377.237 76.4598C369.078 70.5515 365 62.1877 365 51.3664C365 36.2393 370.724 25.9814 382.172 20.5926C387.885 17.8873 393.598 16.7078 399.311 17.0542V17.052ZM373.309 50.2615C373.309 59.1996 375.516 66.2655 379.931 71.4591C383.069 75.1378 387.126 77.7029 392.105 79.152V21.531C387.126 22.9604 383.071 25.4903 379.931 29.1274C375.516 34.2772 373.309 41.3233 373.309 50.2615ZM396.259 20.6869C395.523 20.7746 394.799 20.893 394.085 21.0443V79.6716C394.841 79.8229 395.567 79.9522 396.259 80.0618V20.6869ZM399.539 80.2241C400.361 80.2021 401.238 80.1386 402.167 80.0289V21.11C401.28 20.9149 400.403 20.7636 399.539 20.6562V80.2241ZM404.147 79.6716C409.145 78.6105 413.236 76.3283 416.417 72.8227C420.918 67.8681 423.169 60.7912 423.169 51.5922C423.169 42.3932 420.918 35.0686 416.417 29.6799C413.236 25.8718 409.145 23.1993 404.147 21.6625V79.6738V79.6716Z" fill="white"/>
<path d="M469.037 62.1417C472.782 67.6598 476.07 71.8055 478.905 74.5744C483.969 79.5093 488.599 81.5438 492.799 80.6779C492.604 81.1317 492.03 81.5986 491.078 82.0744C489.217 83.0258 486.424 83.5038 482.704 83.5038C478.984 83.5038 474.459 80.3117 469.136 73.9277C466.475 70.7247 464.19 67.5217 462.287 64.3187C461.443 62.7819 460.025 61.256 458.035 59.7411C454.053 56.6674 449.215 55.1306 443.524 55.1306V77.4003C443.653 79.1958 444.627 80.7546 446.446 82.0744C447.356 82.7233 448.253 83.199 449.141 83.5038H430.215C431.103 83.2012 431.999 82.7255 432.909 82.0744C434.726 80.7546 435.7 79.1958 435.831 77.4003V23.5435C435.702 21.7699 434.729 20.2221 432.909 18.9023C431.999 18.2315 431.103 17.7448 430.215 17.4422H443.524C448.176 16.6859 452.83 16.7824 457.482 17.7338C466.81 19.639 471.473 24.8764 471.473 33.4463C471.624 35.005 471.311 36.9847 470.533 39.3875C469.018 44.1711 465.966 48.6062 461.378 52.6971C463.607 54.7535 466.161 57.9017 469.04 62.1439L469.037 62.1417ZM454.626 50.4873C456.14 50.4215 457.655 49.8383 459.17 48.7334C462.178 46.5257 463.682 42.7922 463.682 37.5328C463.682 31.7976 462.134 27.2968 459.041 24.028C456.509 21.3665 453.674 20.0358 450.535 20.0358C447.395 20.0358 445.633 20.1235 445.243 20.2945C444.269 20.7066 443.783 22.0922 443.783 24.4489C443.783 27.8909 443.695 36.5681 443.524 50.4829H454.626V50.4873Z" fill="white"/>
<path d="M527.242 18.1877L529.741 17.0192L527.242 29.1603C527.154 27.9479 526.799 26.7465 526.169 25.5561C524.935 23.1336 522.978 21.9212 520.294 21.9212H507.667V46.7866H521.561C524.245 46.7209 526.452 45.9864 528.184 44.579L526.562 57.597C526.518 56.4066 526.141 55.2271 525.426 54.0586C523.997 51.7216 521.616 50.5531 518.284 50.5531H507.669V75.2256C508.384 76.1573 509.401 77.0869 510.721 78.0164C513.382 79.8777 516.25 80.8072 519.323 80.8072C522.397 80.8072 525.306 79.3472 527.991 76.4248C529.333 74.9537 530.361 73.4914 531.076 72.0423L529.745 83.5016H494.296C495.226 83.1772 496.169 82.6685 497.12 81.9758C499.025 80.5464 499.977 78.8714 499.977 76.9444C499.977 73.8707 499.944 55.7906 499.88 22.6995C498.907 20.7089 496.655 19.2049 493.128 18.1877H527.244H527.242Z" fill="white"/>
<path d="M573.627 62.1417C577.372 67.6598 580.66 71.8055 583.494 74.5744C588.559 79.5093 593.189 81.5438 597.389 80.6779C597.194 81.1317 596.619 81.5986 595.668 82.0744C593.807 83.0258 591.014 83.5038 587.294 83.5038C583.573 83.5038 579.049 80.3117 573.726 73.9277C571.064 70.7247 568.78 67.5217 566.877 64.3187C566.033 62.7819 564.615 61.256 562.624 59.7411C558.643 56.6674 553.805 55.1306 548.114 55.1306V77.4003C548.243 79.1958 549.217 80.7546 551.036 82.0744C551.946 82.7233 552.843 83.199 553.73 83.5038H534.805C535.693 83.2012 536.589 82.7255 537.499 82.0744C539.316 80.7546 540.29 79.1958 540.421 77.4003V23.5435C540.292 21.7699 539.319 20.2221 537.499 18.9023C536.589 18.2315 535.693 17.7448 534.805 17.4422H548.114C552.766 16.6859 557.42 16.7824 562.072 17.7338C571.4 19.639 576.063 24.8764 576.063 33.4463C576.214 35.005 575.901 36.9847 575.122 39.3875C573.607 44.1711 570.556 48.6062 565.967 52.6971C568.197 54.7535 570.751 57.9017 573.629 62.1439L573.627 62.1417ZM559.215 50.4873C560.73 50.4215 562.245 49.8383 563.76 48.7334C566.768 46.5257 568.272 42.7922 568.272 37.5328C568.272 31.7976 566.724 27.2968 563.631 24.028C561.099 21.3665 558.264 20.0358 555.125 20.0358C551.985 20.0358 550.223 20.1235 549.833 20.2945C548.859 20.7066 548.372 22.0922 548.372 24.4489C548.372 27.8909 548.285 36.5681 548.114 50.4829H559.215V50.4873Z" fill="white"/>
</svg>
