<svg width="360" height="50" viewBox="0 0 360 50" fill="none" xmlns="http://www.w3.org/2000/svg">
<path d="M359.987 0L357.905 10.0934C357.829 9.09042 357.537 8.08743 357.016 7.09713C355.988 5.07845 354.363 4.07545 352.128 4.07545H98.1966V4.72296C98.1839 15.1719 98.1585 19.4631 98.1458 28.0711V44.9062C98.26 46.4043 99.0726 47.6993 100.596 48.7912C101.358 49.3498 102.094 49.7561 102.831 50.01H86.9987C87.7351 49.7561 88.4969 49.3498 89.2713 48.7912C90.7821 47.6993 91.5947 46.4043 91.7216 44.9062V24.1353C91.7089 15.5147 91.6835 15.1719 91.6708 4.72296L91.6455 4.07545H81.2348C79.0003 4.07545 77.3625 5.07845 76.3214 7.09713C75.8136 8.08743 75.5343 9.09042 75.4581 10.0934L73.376 0L75.4581 0.977602H357.918L360 0H359.987Z" fill="black"/>
<path d="M29.7659 33.4536C29.8548 33.1616 29.7659 32.8061 29.4739 32.4252C28.9026 31.6381 27.6584 31.0033 25.7413 30.5208H38.4626C36.5456 31.0033 35.3013 31.6381 34.73 32.4252C34.438 32.8188 34.3365 33.1616 34.438 33.4536V47.1908C33.8667 47.6479 32.9399 48.1049 31.6449 48.5747C29.0422 49.4888 25.9317 49.9586 22.3007 49.9586C15.7623 49.9586 10.5442 48.3842 6.65928 45.2356C2.22839 41.6426 0.0192969 36.3229 0.0192969 29.2639C-0.133055 26.0772 0.616003 22.9032 2.29187 19.7291C5.6436 13.3557 11.89 10.1689 21.0438 10.1689C28.4074 10.7276 33.0288 11.2862 34.8824 11.8448L33.5366 20.6432C33.27 19.1959 32.559 17.7485 31.4164 16.2885C29.1438 13.3684 25.8302 11.921 21.4755 11.921C16.2066 11.921 12.0424 13.4572 9.00803 16.5297C5.92291 19.6402 4.3867 23.9188 4.3867 29.3528C4.3867 34.7867 6.49423 38.9764 10.722 42.6075C14.6196 45.9466 18.9363 47.6225 23.6592 47.6225C26.2745 47.7368 28.3186 47.1273 29.7786 45.7815V33.479L29.7659 33.4536Z" fill="black"/>
<path d="M61.7979 10.1818C66.3811 10.1818 70.6343 12.0481 74.5573 15.7934C78.874 19.9197 81.0323 24.9473 81.0323 30.851C81.0323 36.7547 78.8105 41.3761 74.3669 45.1088C70.52 48.3336 66.3304 49.946 61.7979 49.946C56.8719 49.946 52.4664 48.5367 48.5814 45.7309C43.6935 42.1887 41.2559 37.1864 41.2559 30.7114C41.2559 21.6591 44.6838 15.5141 51.5269 12.2893C54.9421 10.6642 58.37 9.96592 61.7852 10.1691L61.7979 10.1818ZM46.2454 30.0639C46.2454 35.4089 47.5658 39.6367 50.2065 42.7473C52.0855 44.9437 54.5104 46.48 57.494 47.356V12.8733C54.5104 13.724 52.0855 15.2475 50.2065 17.4185C47.5658 20.5037 46.2454 24.7188 46.2454 30.0639ZM59.9697 12.3655C59.5253 12.4163 59.0937 12.4925 58.662 12.5813V47.6734C59.1191 47.7623 59.5507 47.8384 59.9697 47.9019V12.3655ZM61.9376 47.9908C62.4327 47.9781 62.9533 47.94 63.5119 47.8765V12.6194C62.9786 12.5051 62.4581 12.4163 61.9376 12.3528V48.0035V47.9908ZM64.6926 47.6607C67.6888 47.0259 70.1265 45.6547 72.0309 43.5598C74.7224 40.589 76.0682 36.3612 76.0682 30.851C76.0682 25.3409 74.7224 20.9608 72.0309 17.736C70.1265 15.4507 67.6761 13.8509 64.6926 12.9368V47.6607Z" fill="black"/>
<path d="M132.64 10.8799L134.138 10.1816L132.64 17.4438C132.589 16.7201 132.373 15.9965 131.992 15.2855C131.256 13.8381 130.088 13.1144 128.475 13.1144H120.921V27.9943H129.237C130.85 27.9562 132.17 27.5118 133.198 26.6739L132.221 34.4693C132.195 33.7583 131.967 33.0473 131.535 32.3491C130.685 30.9525 129.25 30.2542 127.257 30.2542H120.909V45.0198C121.34 45.5784 121.95 46.137 122.737 46.6957C124.324 47.8129 126.051 48.3715 127.891 48.3715C129.732 48.3715 131.472 47.4955 133.084 45.7435C133.884 44.8674 134.506 43.9914 134.925 43.1154L134.125 49.9713H112.91C113.469 49.7808 114.027 49.4761 114.599 49.0571C115.741 48.2065 116.313 47.2035 116.313 46.0482C116.313 44.2072 116.287 33.3901 116.249 13.5842C115.665 12.3908 114.319 11.4893 112.212 10.8799H132.627H132.64Z" fill="black"/>
<path d="M166.462 46.5179C166.666 47.7114 167.25 48.6382 168.189 49.3111C168.659 49.6539 169.103 49.8697 169.548 49.9713H158.959C160.483 49.2476 161.321 48.0161 161.448 46.2767L155.912 37.9607L153.348 33.5298L150.783 37.9607L145.26 46.2767C145.336 47.3686 145.933 48.3081 147.05 49.0952C147.596 49.5015 148.142 49.7935 148.688 49.9713H137.173C137.605 49.8697 138.049 49.6539 138.531 49.3111C139.471 48.6382 140.055 47.7114 140.258 46.5179L150.923 29.3274L142.569 13.6477C142.365 12.4542 141.782 11.5274 140.842 10.8545C140.36 10.5117 139.915 10.2959 139.484 10.1943H150.999C150.453 10.3721 149.907 10.6641 149.361 11.0704C148.244 11.8575 147.647 12.797 147.571 13.8635L153.551 24.6679L153.576 24.706L153.601 24.6679L159.137 13.8635C159.061 12.7843 158.464 11.8575 157.347 11.0704C156.801 10.6641 156.255 10.3721 155.709 10.1943H167.224C166.78 10.2959 166.335 10.5244 165.866 10.8545C164.914 11.5274 164.342 12.4669 164.139 13.6477L155.976 28.9973L166.45 46.5179H166.462Z" fill="black"/>
<path d="M191.168 31.5368C190.99 31.778 190.406 32.0319 189.416 32.2732C187.448 32.7556 184.464 32.9969 180.478 32.9969V46.3278C180.554 47.4069 181.138 48.3338 182.23 49.1209C182.776 49.5145 183.309 49.7938 183.842 49.9716H172.518C173.051 49.7938 173.584 49.5018 174.13 49.1209C175.222 48.3338 175.806 47.3942 175.882 46.3278V14.0923C175.806 13.0259 175.222 12.0991 174.13 11.3119C173.584 10.9056 173.051 10.6136 172.518 10.4359H180.478C183.258 9.9788 186.051 10.0423 188.832 10.6136C194.418 11.7563 197.211 14.8922 197.211 20.0214C197.3 20.9482 197.11 22.1417 196.653 23.5763C195.751 26.433 193.923 29.0991 191.168 31.5368ZM187.131 30.2164C188.032 30.1783 188.946 29.8228 189.848 29.1626C191.65 27.8422 192.552 25.6077 192.552 22.4591C192.552 19.0311 191.625 16.3269 189.771 14.3717C188.261 12.7846 186.559 11.9848 184.68 11.9848C182.801 11.9848 181.748 12.0356 181.519 12.1371C180.935 12.3784 180.643 13.2163 180.643 14.6256C180.643 16.6824 180.592 21.8751 180.491 30.2037H187.131V30.2164Z" fill="black"/>
<path d="M212.218 48.3208C214.097 48.3208 215.849 47.432 217.486 45.6546C218.299 44.7659 218.934 43.8771 219.365 42.9884L218.553 49.9586H196.944C197.528 49.7681 198.1 49.4507 198.671 49.0318C199.826 48.1684 200.398 47.1527 200.398 45.9847C200.398 44.1057 200.372 33.0854 200.334 12.9367C199.75 11.7179 198.379 10.8038 196.233 10.1816H209.132C207.177 10.753 205.832 11.629 205.095 12.8224V44.9182C205.527 45.4895 206.149 46.0609 206.961 46.6322C208.574 47.7621 210.313 48.3208 212.205 48.3208H212.218ZM205.032 12.9367C204.994 33.0854 204.968 44.1057 204.968 45.9847L205.108 12.8224C205.108 12.8224 205.057 12.9113 205.032 12.9367Z" fill="black"/>
<path d="M238.676 10.1945C243.259 10.1945 247.512 12.0608 251.435 15.8061C255.752 19.9324 257.91 24.96 257.91 30.8637C257.91 36.7674 255.688 41.3888 251.245 45.1215C247.398 48.3463 243.208 49.9587 238.676 49.9587C233.75 49.9587 229.344 48.5494 225.459 45.7436C220.571 42.2014 218.134 37.1991 218.134 30.7241C218.134 21.6717 221.562 15.5268 228.405 12.302C231.82 10.6769 235.248 9.97862 238.663 10.1818L238.676 10.1945ZM223.111 30.0766C223.111 35.4216 224.431 39.6494 227.072 42.76C228.951 44.9564 231.376 46.4926 234.359 47.3687V12.886C231.376 13.7367 228.951 15.2602 227.072 17.4312C224.431 20.5164 223.111 24.7315 223.111 30.0766ZM236.848 12.3782C236.403 12.429 235.972 12.5051 235.54 12.594V47.6861C235.997 47.775 236.429 47.8511 236.848 47.9146V12.3782ZM238.816 48.0035C239.311 47.9908 239.831 47.9527 240.39 47.8892V12.6321C239.857 12.5178 239.336 12.429 238.816 12.3655V48.0162V48.0035ZM241.571 47.6734C244.567 47.0386 247.004 45.6674 248.909 43.5725C251.6 40.6017 252.946 36.3738 252.946 30.8637C252.946 25.3536 251.6 20.9735 248.909 17.7486C247.004 15.4633 244.554 13.8636 241.571 12.9495V47.6734Z" fill="black"/>
<path d="M280.407 37.1866C282.642 40.4876 284.622 42.9633 286.311 44.6265C289.345 47.5847 292.113 48.7908 294.627 48.283C294.513 48.5496 294.17 48.8289 293.599 49.1209C292.481 49.6923 290.818 49.9716 288.584 49.9716C286.349 49.9716 283.645 48.0671 280.458 44.2456C278.871 42.3285 277.5 40.4114 276.357 38.4943C275.85 37.5802 274.999 36.666 273.818 35.7519C271.431 33.911 268.537 32.9969 265.134 32.9969V46.3278C265.21 47.4069 265.794 48.3338 266.886 49.1209C267.432 49.5145 267.965 49.7938 268.499 49.9716H257.174C257.707 49.7938 258.24 49.5018 258.786 49.1209C259.878 48.3338 260.462 47.3942 260.538 46.3278V14.0923C260.462 13.0259 259.878 12.0991 258.786 11.3119C258.24 10.9056 257.707 10.6136 257.174 10.4359H265.134C267.915 9.9788 270.708 10.0423 273.488 10.6136C279.074 11.7563 281.867 14.8922 281.867 20.0214C281.956 20.9482 281.766 22.1417 281.309 23.5763C280.407 26.433 278.579 29.0991 275.824 31.5368C277.157 32.7683 278.681 34.6474 280.407 37.1866ZM271.774 30.2164C272.676 30.1783 273.59 29.8228 274.491 29.1626C276.294 27.8422 277.195 25.6077 277.195 22.4591C277.195 19.0311 276.269 16.3269 274.415 14.3717C272.904 12.7846 271.203 11.9848 269.324 11.9848C267.445 11.9848 266.391 12.0356 266.163 12.1371C265.579 12.3784 265.287 13.2163 265.287 14.6256C265.287 16.6824 265.236 21.8751 265.134 30.2037H271.774V30.2164Z" fill="black"/>
<path d="M315.245 10.8799L316.743 10.1816L315.245 17.4438C315.194 16.7201 314.979 15.9965 314.598 15.2855C313.861 13.8381 312.693 13.1144 311.081 13.1144H303.527V27.9943H311.843C313.455 27.9562 314.775 27.5118 315.804 26.6739L314.826 34.4693C314.801 33.7583 314.572 33.0473 314.141 32.3491C313.29 30.9525 311.855 30.2542 309.862 30.2542H303.514V45.0198C303.946 45.5784 304.555 46.137 305.342 46.6957C306.929 47.8129 308.656 48.3715 310.497 48.3715C312.338 48.3715 314.077 47.4955 315.69 45.7435C316.489 44.8674 317.111 43.9914 317.53 43.1154L316.731 49.9713H295.516C296.074 49.7808 296.633 49.4761 297.204 49.0571C298.347 48.2065 298.918 47.2035 298.918 46.0482C298.918 44.2072 298.893 33.3901 298.855 13.5842C298.271 12.3908 296.925 11.4893 294.817 10.8799H315.232H315.245Z" fill="black"/>
<path d="M342.999 37.1866C345.234 40.4876 347.214 42.9633 348.903 44.6265C351.937 47.5847 354.705 48.7908 357.219 48.283C357.104 48.5496 356.762 48.8289 356.19 49.1209C355.073 49.6923 353.41 49.9716 351.175 49.9716C348.941 49.9716 346.237 48.0671 343.05 44.2456C341.463 42.3285 340.092 40.4114 338.949 38.4943C338.441 37.5802 337.591 36.666 336.41 35.7519C334.023 33.911 331.128 32.9969 327.726 32.9969V46.3278C327.802 47.4069 328.386 48.3338 329.478 49.1209C330.024 49.5145 330.557 49.7938 331.09 49.9716H319.766C320.299 49.7938 320.832 49.5018 321.378 49.1209C322.47 48.3338 323.054 47.3942 323.13 46.3278V14.0923C323.054 13.0259 322.47 12.0991 321.378 11.3119C320.832 10.9056 320.299 10.6136 319.766 10.4359H327.726C330.506 9.9788 333.3 10.0423 336.08 10.6136C341.666 11.7563 344.459 14.8922 344.459 20.0214C344.548 20.9482 344.358 22.1417 343.901 23.5763C342.999 26.433 341.171 29.0991 338.416 31.5368C339.749 32.7683 341.273 34.6474 342.999 37.1866ZM334.379 30.2164C335.28 30.1783 336.194 29.8228 337.096 29.1626C338.898 27.8422 339.8 25.6077 339.8 22.4591C339.8 19.0311 338.873 16.3269 337.019 14.3717C335.509 12.7846 333.807 11.9848 331.928 11.9848C330.049 11.9848 328.996 12.0356 328.767 12.1371C328.183 12.3784 327.891 13.2163 327.891 14.6256C327.891 16.6824 327.84 21.8751 327.739 30.2037H334.379V30.2164Z" fill="black"/>
</svg>
